<svg height="512pt" viewBox="0 0 512 512" width="512pt" xmlns="http://www.w3.org/2000/svg"><path d="m173.894531 316.890625-21.210937 21.214844c-5.851563 5.851562-5.851563 15.359375 0 21.210937 5.851562 5.855469 15.359375 5.855469 21.210937 0l21.214844-21.210937c5.855469-5.855469 5.855469-15.363281 0-21.214844-5.851563-5.851563-15.363281-5.851563-21.214844 0zm0 0"/><path d="m123.011719 367.777344c-7.878907-16.699219-5.328125-37.097656 8.457031-50.886719l21.214844-21.214844c13.785156-13.785156 34.1875-16.335937 50.882812-8.457031l287.21875-287.21875c-30.355468 4.707031-162.359375 35.082031-285.070312 157.789062-93.730469 93.730469-168.269532 195.785157-197.738282 271.324219l-7.976562 22.886719h38.785156zm0 0"/><path d="m216.324219 359.316406-21.214844 21.214844c-13.789063 13.785156-34.1875 16.335938-50.886719 8.457031l-84.222656 84.226563v38.785156l22.886719-7.976562c75.539062-29.46875 177.59375-104.007813 271.324219-197.738282 122.710937-122.714844 153.082031-254.722656 157.789062-285.074218l-287.21875 287.21875c7.878906 16.699218 5.328125 37.097656-8.457031 50.886718zm0 0"/><path d="m184.5 136.585938c15.582031-15.578126 31.308594-29.554688 46.972656-42.390626-96.910156-69.851562-186.066406-90.441406-210.257812-94.195312l150.183594 150.183594c4.402343-4.523438 8.609374-9.105469 13.101562-13.597656zm0 0"/><path d="m415.847656 282.835938c-10.210937 12.347656-21.277344 24.699218-33.183594 37.007812 11.539063 13.65625 13.695313 32.3125 6.324219 47.933594l84.226563 84.222656h38.785156l-7.976562-22.886719c-16.507813-42.316406-48.207032-93.71875-88.175782-146.277343zm0 0"/><path d="m96.234375 234.367188c17-20.859376 35.019531-41.796876 54.347656-62.574219l-150.582031-150.582031c3.789062 24.433593 24.660156 115.105468 96.234375 213.15625zm0 0"/><path d="m280.089844 413.757812c53.546875 41.003907 105.972656 73.46875 149.027344 90.265626l22.882812 7.976562v-38.785156l-84.222656-84.226563c-16.289063 7.683594-36.003906 5.261719-49.761719-7.644531-12.65625 11.246094-25.289063 22.050781-37.925781 32.414062zm0 0"/><path d="m359.316406 359.316406c4.96875-4.96875 5.457032-12.457031 1.984375-18.222656-6.875 6.683594-13.726562 13.445312-20.660156 19.90625 5.816406 3.800781 13.574219 3.421875 18.675781-1.683594zm0 0"/></svg>